<svg width="36" height="36" viewBox="0 0 36 36" fill="none" xmlns="http://www.w3.org/2000/svg">
<rect width="36" height="36" rx="18" fill="#DB162F"/>
<path d="M17.993 9.66699C13.393 9.66699 9.66797 13.4003 9.66797 18.0003C9.66797 22.6003 13.393 26.3337 17.993 26.3337C22.6013 26.3337 26.3346 22.6003 26.3346 18.0003C26.3346 13.4003 22.6013 9.66699 17.993 9.66699ZM18.0013 24.667C14.318 24.667 11.3346 21.6837 11.3346 18.0003C11.3346 14.317 14.318 11.3337 18.0013 11.3337C21.6846 11.3337 24.668 14.317 24.668 18.0003C24.668 21.6837 21.6846 24.667 18.0013 24.667Z" fill="white"/>
<path d="M18.418 13.833H17.168V18.833L21.543 21.458L22.168 20.433L18.418 18.208V13.833Z" fill="white"/>
</svg>
