<svg width="243" height="59" viewBox="0 0 243 59" fill="none" xmlns="http://www.w3.org/2000/svg">
<path d="M17.7463 16.792C17.0263 16.36 16.2823 15.976 15.5143 15.64C14.8663 15.352 14.1343 15.088 13.3183 14.848C12.5263 14.584 11.7463 14.452 10.9783 14.452C10.3543 14.452 9.85031 14.548 9.46631 14.74C9.10631 14.932 8.92631 15.256 8.92631 15.712C8.92631 16.048 9.03431 16.324 9.25031 16.54C9.46631 16.756 9.77831 16.96 10.1863 17.152C10.5943 17.32 11.0863 17.488 11.6623 17.656C12.2623 17.824 12.9343 18.028 13.6783 18.268C14.8543 18.628 15.9103 19.024 16.8463 19.456C17.8063 19.888 18.6223 20.404 19.2943 21.004C19.9663 21.58 20.4823 22.288 20.8423 23.128C21.2023 23.968 21.3823 24.988 21.3823 26.188C21.3823 27.724 21.0943 29.02 20.5183 30.076C19.9663 31.108 19.2223 31.936 18.2863 32.56C17.3743 33.184 16.3303 33.64 15.1543 33.928C14.0023 34.192 12.8383 34.324 11.6623 34.324C10.7263 34.324 9.76631 34.252 8.78231 34.108C7.79831 33.964 6.81431 33.76 5.83031 33.496C4.87031 33.232 3.93431 32.92 3.02231 32.56C2.13431 32.2 1.30631 31.792 0.538313 31.336L3.56231 25.18C4.40231 25.708 5.27831 26.176 6.19031 26.584C6.95831 26.944 7.82231 27.268 8.78231 27.556C9.76631 27.844 10.7623 27.988 11.7703 27.988C12.5383 27.988 13.0663 27.892 13.3543 27.7C13.6663 27.484 13.8223 27.208 13.8223 26.872C13.8223 26.512 13.6663 26.212 13.3543 25.972C13.0663 25.708 12.6583 25.48 12.1303 25.288C11.6023 25.096 10.9903 24.904 10.2943 24.712C9.62231 24.52 8.90231 24.292 8.13431 24.028C7.00631 23.644 6.03431 23.236 5.21831 22.804C4.40231 22.348 3.73031 21.844 3.20231 21.292C2.67431 20.716 2.27831 20.068 2.01431 19.348C1.77431 18.628 1.65431 17.8 1.65431 16.864C1.65431 15.448 1.90631 14.2 2.41031 13.12C2.93831 12.04 3.64631 11.14 4.53431 10.42C5.42231 9.7 6.43031 9.16 7.55831 8.8C8.71031 8.416 9.92231 8.224 11.1943 8.224C12.1303 8.224 13.0423 8.32 13.9303 8.512C14.8183 8.68 15.6703 8.908 16.4863 9.196C17.3263 9.46 18.1063 9.76 18.8263 10.096C19.5463 10.408 20.1943 10.708 20.7703 10.996L17.7463 16.792ZM44.3931 14.56H37.0491V34H30.0291V14.56H22.6491V8.44H44.3931V14.56ZM51.2184 8.44H57.6264L66.4824 34H59.3544L57.8064 28.996H51.0024L49.4904 34H42.3264L51.2184 8.44ZM56.6904 24.316L54.4224 16.396L52.0464 24.316H56.6904ZM68.6062 34V8.44H80.3422C81.5902 8.44 82.7422 8.704 83.7982 9.232C84.8542 9.736 85.7542 10.408 86.4982 11.248C87.2662 12.064 87.8662 13.012 88.2982 14.092C88.7302 15.148 88.9462 16.216 88.9462 17.296C88.9462 18.784 88.6222 20.176 87.9742 21.472C87.3262 22.744 86.4262 23.788 85.2742 24.604L90.6742 34H82.7542L78.2542 26.152H75.6262V34H68.6062ZM75.6262 20.032H80.0542C80.4862 20.032 80.8822 19.792 81.2422 19.312C81.6262 18.832 81.8182 18.16 81.8182 17.296C81.8182 16.408 81.6022 15.736 81.1702 15.28C80.7382 14.8 80.3062 14.56 79.8742 14.56H75.6262V20.032ZM112.456 14.56H105.112V34H98.0916V14.56H90.7116V8.44H112.456V14.56ZM126.146 34.216C124.202 34.216 122.438 33.844 120.854 33.1C119.27 32.356 117.914 31.384 116.786 30.184C115.658 28.96 114.782 27.568 114.158 26.008C113.534 24.448 113.222 22.84 113.222 21.184C113.222 19.504 113.546 17.884 114.194 16.324C114.842 14.764 115.742 13.396 116.894 12.22C118.07 11.02 119.45 10.072 121.034 9.376C122.642 8.656 124.394 8.296 126.29 8.296C128.234 8.296 129.998 8.668 131.582 9.412C133.166 10.156 134.522 11.14 135.65 12.364C136.778 13.588 137.642 14.98 138.242 16.54C138.866 18.1 139.178 19.696 139.178 21.328C139.178 23.008 138.854 24.628 138.206 26.188C137.558 27.724 136.658 29.092 135.506 30.292C134.354 31.468 132.974 32.416 131.366 33.136C129.782 33.856 128.042 34.216 126.146 34.216ZM120.35 21.256C120.35 22.12 120.47 22.96 120.71 23.776C120.95 24.568 121.31 25.276 121.79 25.9C122.27 26.524 122.87 27.028 123.59 27.412C124.334 27.796 125.21 27.988 126.218 27.988C127.226 27.988 128.102 27.796 128.846 27.412C129.59 27.004 130.19 26.488 130.646 25.864C131.126 25.216 131.474 24.484 131.69 23.668C131.93 22.852 132.05 22.024 132.05 21.184C132.05 20.32 131.93 19.492 131.69 18.7C131.45 17.884 131.078 17.176 130.574 16.576C130.094 15.952 129.482 15.46 128.738 15.1C128.018 14.716 127.166 14.524 126.182 14.524C125.174 14.524 124.298 14.716 123.554 15.1C122.834 15.484 122.234 16 121.754 16.648C121.274 17.272 120.914 17.992 120.674 18.808C120.458 19.6 120.35 20.416 120.35 21.256ZM142.153 34V8.44H153.889C155.137 8.44 156.289 8.704 157.345 9.232C158.401 9.736 159.301 10.408 160.045 11.248C160.813 12.064 161.413 13.012 161.845 14.092C162.277 15.148 162.493 16.216 162.493 17.296C162.493 18.784 162.169 20.176 161.521 21.472C160.873 22.744 159.973 23.788 158.821 24.604L164.221 34H156.301L151.801 26.152H149.173V34H142.153ZM149.173 20.032H153.601C154.033 20.032 154.429 19.792 154.789 19.312C155.173 18.832 155.365 18.16 155.365 17.296C155.365 16.408 155.149 15.736 154.717 15.28C154.285 14.8 153.853 14.56 153.421 14.56H149.173V20.032ZM173.07 8.44H179.478L188.334 34H181.206L179.658 28.996H172.854L171.342 34H164.178L173.07 8.44ZM178.542 24.316L176.274 16.396L173.898 24.316H178.542ZM197.478 21.436V34H190.458V8.44H195.93L206.19 21.436V8.44H213.21V34H207.63L197.478 21.436ZM229.118 34.216C227.174 34.216 225.41 33.844 223.826 33.1C222.242 32.356 220.886 31.384 219.758 30.184C218.63 28.96 217.754 27.568 217.13 26.008C216.506 24.448 216.194 22.84 216.194 21.184C216.194 19.504 216.518 17.884 217.166 16.324C217.814 14.764 218.714 13.396 219.866 12.22C221.042 11.02 222.422 10.072 224.006 9.376C225.614 8.656 227.366 8.296 229.262 8.296C231.206 8.296 232.97 8.668 234.554 9.412C236.138 10.156 237.494 11.14 238.622 12.364C239.75 13.588 240.614 14.98 241.214 16.54C241.838 18.1 242.15 19.696 242.15 21.328C242.15 23.008 241.826 24.628 241.178 26.188C240.53 27.724 239.63 29.092 238.478 30.292C237.326 31.468 235.946 32.416 234.338 33.136C232.754 33.856 231.014 34.216 229.118 34.216ZM223.322 21.256C223.322 22.12 223.442 22.96 223.682 23.776C223.922 24.568 224.282 25.276 224.762 25.9C225.242 26.524 225.842 27.028 226.562 27.412C227.306 27.796 228.182 27.988 229.19 27.988C230.198 27.988 231.074 27.796 231.818 27.412C232.562 27.004 233.162 26.488 233.618 25.864C234.098 25.216 234.446 24.484 234.662 23.668C234.902 22.852 235.022 22.024 235.022 21.184C235.022 20.32 234.902 19.492 234.662 18.7C234.422 17.884 234.05 17.176 233.546 16.576C233.066 15.952 232.454 15.46 231.71 15.1C230.99 14.716 230.138 14.524 229.154 14.524C228.146 14.524 227.27 14.716 226.526 15.1C225.806 15.484 225.206 16 224.726 16.648C224.246 17.272 223.886 17.992 223.646 18.808C223.43 19.6 223.322 20.416 223.322 21.256Z" fill="white"/>
<path d="M5.75923 50.32C5.75923 49.7653 5.85456 49.215 6.04523 48.669C6.24456 48.1143 6.53056 47.6203 6.90323 47.187C7.27589 46.7537 7.73523 46.4027 8.28123 46.134C8.82723 45.8567 9.44689 45.718 10.1402 45.718C10.9636 45.718 11.6656 45.9043 12.2462 46.277C12.8356 46.6497 13.2689 47.135 13.5462 47.733L12.8312 48.175C12.6839 47.8717 12.5019 47.616 12.2852 47.408C12.0772 47.2 11.8519 47.031 11.6092 46.901C11.3666 46.771 11.1152 46.68 10.8552 46.628C10.5952 46.5673 10.3396 46.537 10.0882 46.537C9.53356 46.537 9.04389 46.6497 8.61923 46.875C8.19456 47.1003 7.83489 47.395 7.54023 47.759C7.25423 48.123 7.03756 48.5347 6.89023 48.994C6.74289 49.4447 6.66923 49.904 6.66923 50.372C6.66923 50.8833 6.75589 51.373 6.92923 51.841C7.11123 52.309 7.35389 52.725 7.65723 53.089C7.96923 53.4443 8.33323 53.7303 8.74923 53.947C9.17389 54.155 9.63323 54.259 10.1272 54.259C10.3872 54.259 10.6516 54.2287 10.9202 54.168C11.1976 54.0987 11.4619 53.9947 11.7132 53.856C11.9732 53.7087 12.2116 53.531 12.4282 53.323C12.6449 53.1063 12.8269 52.8463 12.9742 52.543L13.7282 52.933C13.5809 53.2797 13.3729 53.5873 13.1042 53.856C12.8356 54.116 12.5366 54.337 12.2072 54.519C11.8779 54.701 11.5269 54.8397 11.1542 54.935C10.7902 55.0303 10.4306 55.078 10.0752 55.078C9.44256 55.078 8.86189 54.9393 8.33323 54.662C7.80456 54.3847 7.34956 54.025 6.96823 53.583C6.58689 53.1323 6.28789 52.6253 6.07123 52.062C5.86323 51.49 5.75923 50.9093 5.75923 50.32ZM23.0065 55.065C22.3651 55.065 21.7758 54.935 21.2385 54.675C20.7098 54.4063 20.2548 54.0553 19.8735 53.622C19.4921 53.18 19.1975 52.6773 18.9895 52.114C18.7815 51.5507 18.6775 50.9743 18.6775 50.385C18.6775 49.7697 18.7858 49.1803 19.0025 48.617C19.2278 48.0537 19.5355 47.5553 19.9255 47.122C20.3155 46.6887 20.7748 46.3463 21.3035 46.095C21.8321 45.835 22.4041 45.705 23.0195 45.705C23.6608 45.705 24.2458 45.8437 24.7745 46.121C25.3118 46.3897 25.7668 46.745 26.1395 47.187C26.5208 47.629 26.8155 48.1317 27.0235 48.695C27.2315 49.2497 27.3355 49.8173 27.3355 50.398C27.3355 51.0133 27.2228 51.6027 26.9975 52.166C26.7808 52.7293 26.4775 53.2277 26.0875 53.661C25.7061 54.0857 25.2511 54.428 24.7225 54.688C24.1938 54.9393 23.6218 55.065 23.0065 55.065ZM19.5875 50.385C19.5875 50.8877 19.6698 51.373 19.8345 51.841C19.9991 52.3003 20.2331 52.712 20.5365 53.076C20.8398 53.4313 21.1995 53.7173 21.6155 53.934C22.0315 54.142 22.4951 54.246 23.0065 54.246C23.5265 54.246 23.9988 54.1333 24.4235 53.908C24.8481 53.6827 25.2078 53.388 25.5025 53.024C25.7971 52.66 26.0225 52.2483 26.1785 51.789C26.3431 51.3297 26.4255 50.8617 26.4255 50.385C26.4255 49.8823 26.3388 49.4013 26.1655 48.942C26.0008 48.474 25.7668 48.0623 25.4635 47.707C25.1601 47.3517 24.8005 47.07 24.3845 46.862C23.9685 46.6453 23.5091 46.537 23.0065 46.537C22.4865 46.537 22.0141 46.6497 21.5895 46.875C21.1648 47.0917 20.8051 47.382 20.5105 47.746C20.2158 48.11 19.9861 48.5217 19.8215 48.981C19.6655 49.4403 19.5875 49.9083 19.5875 50.385ZM34.0562 47.46V55H33.1462V45.77H33.8482L39.9582 53.453V45.783H40.8682V55H40.0752L34.0562 47.46ZM48.1932 47.46V55H47.2832V45.77H47.9852L54.0952 53.453V45.783H55.0052V55H54.2122L48.1932 47.46ZM67.6211 54.194V55H61.4201V45.77H67.5041V46.576H62.3301V49.904H66.8411V50.671H62.3301V54.194H67.6211ZM72.6356 50.32C72.6356 49.7653 72.7309 49.215 72.9216 48.669C73.1209 48.1143 73.4069 47.6203 73.7796 47.187C74.1523 46.7537 74.6116 46.4027 75.1576 46.134C75.7036 45.8567 76.3233 45.718 77.0166 45.718C77.8399 45.718 78.5419 45.9043 79.1226 46.277C79.7119 46.6497 80.1453 47.135 80.4226 47.733L79.7076 48.175C79.5603 47.8717 79.3783 47.616 79.1616 47.408C78.9536 47.2 78.7283 47.031 78.4856 46.901C78.2429 46.771 77.9916 46.68 77.7316 46.628C77.4716 46.5673 77.2159 46.537 76.9646 46.537C76.4099 46.537 75.9203 46.6497 75.4956 46.875C75.0709 47.1003 74.7113 47.395 74.4166 47.759C74.1306 48.123 73.9139 48.5347 73.7666 48.994C73.6193 49.4447 73.5456 49.904 73.5456 50.372C73.5456 50.8833 73.6323 51.373 73.8056 51.841C73.9876 52.309 74.2303 52.725 74.5336 53.089C74.8456 53.4443 75.2096 53.7303 75.6256 53.947C76.0503 54.155 76.5096 54.259 77.0036 54.259C77.2636 54.259 77.5279 54.2287 77.7966 54.168C78.0739 54.0987 78.3383 53.9947 78.5896 53.856C78.8496 53.7087 79.0879 53.531 79.3046 53.323C79.5213 53.1063 79.7033 52.8463 79.8506 52.543L80.6046 52.933C80.4573 53.2797 80.2493 53.5873 79.9806 53.856C79.7119 54.116 79.4129 54.337 79.0836 54.519C78.7543 54.701 78.4033 54.8397 78.0306 54.935C77.6666 55.0303 77.3069 55.078 76.9516 55.078C76.3189 55.078 75.7383 54.9393 75.2096 54.662C74.6809 54.3847 74.2259 54.025 73.8446 53.583C73.4633 53.1323 73.1643 52.6253 72.9476 52.062C72.7396 51.49 72.6356 50.9093 72.6356 50.32ZM92.7168 46.576H89.4278V55H88.5178V46.576H85.2288V45.77H92.7168V46.576ZM98.1944 55V45.77H99.1044V55H98.1944ZM106.424 47.46V55H105.514V45.77H106.216L112.326 53.453V45.783H113.236V55H112.443L106.424 47.46ZM126.32 53.648C125.462 54.5927 124.474 55.065 123.356 55.065C122.732 55.065 122.156 54.9307 121.627 54.662C121.107 54.3933 120.652 54.038 120.262 53.596C119.881 53.154 119.582 52.6557 119.365 52.101C119.148 51.5377 119.04 50.9613 119.04 50.372C119.04 49.7567 119.144 49.1673 119.352 48.604C119.569 48.0407 119.868 47.5467 120.249 47.122C120.63 46.6887 121.081 46.3463 121.601 46.095C122.121 45.835 122.689 45.705 123.304 45.705C123.755 45.705 124.166 45.757 124.539 45.861C124.912 45.9563 125.241 46.095 125.527 46.277C125.822 46.4503 126.073 46.6627 126.281 46.914C126.498 47.1567 126.68 47.4253 126.827 47.72L126.125 48.188C125.822 47.616 125.427 47.1957 124.942 46.927C124.457 46.6583 123.906 46.524 123.291 46.524C122.78 46.524 122.316 46.6323 121.9 46.849C121.493 47.0657 121.142 47.356 120.847 47.72C120.561 48.0753 120.34 48.487 120.184 48.955C120.028 49.4143 119.95 49.891 119.95 50.385C119.95 50.905 120.037 51.399 120.21 51.867C120.392 52.335 120.639 52.7467 120.951 53.102C121.263 53.4487 121.627 53.726 122.043 53.934C122.468 54.142 122.927 54.246 123.421 54.246C123.95 54.246 124.452 54.1247 124.929 53.882C125.414 53.6307 125.878 53.2363 126.32 52.699V51.165H124.266V50.463H127.087V55H126.32V53.648ZM145.855 47.499C145.595 47.2043 145.248 46.966 144.815 46.784C144.382 46.602 143.888 46.511 143.333 46.511C142.518 46.511 141.925 46.667 141.552 46.979C141.179 47.2823 140.993 47.6983 140.993 48.227C140.993 48.5043 141.041 48.734 141.136 48.916C141.24 49.0893 141.396 49.241 141.604 49.371C141.812 49.501 142.076 49.6137 142.397 49.709C142.726 49.8043 143.112 49.8997 143.554 49.995C144.048 50.099 144.49 50.216 144.88 50.346C145.279 50.476 145.617 50.6407 145.894 50.84C146.171 51.0307 146.384 51.2647 146.531 51.542C146.678 51.8193 146.752 52.166 146.752 52.582C146.752 53.0067 146.67 53.375 146.505 53.687C146.34 53.999 146.111 54.259 145.816 54.467C145.521 54.675 145.17 54.831 144.763 54.935C144.356 55.0303 143.909 55.078 143.424 55.078C141.994 55.078 140.759 54.6317 139.719 53.739L140.174 52.998C140.339 53.1713 140.534 53.336 140.759 53.492C140.993 53.648 141.249 53.7867 141.526 53.908C141.812 54.0207 142.115 54.1117 142.436 54.181C142.757 54.2417 143.095 54.272 143.45 54.272C144.187 54.272 144.759 54.142 145.166 53.882C145.582 53.6133 145.79 53.2103 145.79 52.673C145.79 52.387 145.729 52.1487 145.608 51.958C145.495 51.7587 145.322 51.5897 145.088 51.451C144.854 51.3037 144.564 51.178 144.217 51.074C143.87 50.97 143.467 50.866 143.008 50.762C142.523 50.6493 142.098 50.5323 141.734 50.411C141.37 50.2897 141.062 50.138 140.811 49.956C140.56 49.774 140.369 49.5573 140.239 49.306C140.118 49.046 140.057 48.7297 140.057 48.357C140.057 47.9323 140.135 47.5553 140.291 47.226C140.456 46.888 140.685 46.6107 140.98 46.394C141.275 46.1687 141.621 45.9997 142.02 45.887C142.419 45.7657 142.861 45.705 143.346 45.705C143.961 45.705 144.507 45.8003 144.984 45.991C145.469 46.173 145.907 46.433 146.297 46.771L145.855 47.499ZM158.94 46.576H155.651V55H154.741V46.576H151.452V45.77H158.94V46.576ZM166.364 45.77H167.131L170.966 55H170.004L168.808 52.114H164.661L163.478 55H162.503L166.364 45.77ZM168.6 51.399L166.741 46.836L164.856 51.399H168.6ZM176.384 55V45.77H180.284C180.682 45.77 181.046 45.8567 181.376 46.03C181.714 46.1947 182.004 46.4157 182.247 46.693C182.489 46.9617 182.676 47.2693 182.806 47.616C182.944 47.9627 183.014 48.3137 183.014 48.669C183.014 49.007 182.962 49.332 182.858 49.644C182.762 49.9473 182.624 50.2247 182.442 50.476C182.268 50.7187 182.056 50.9267 181.805 51.1C181.553 51.2647 181.272 51.3773 180.96 51.438L183.222 55H182.195L180.024 51.594H177.294V55H176.384ZM177.294 50.788H180.31C180.578 50.788 180.821 50.7317 181.038 50.619C181.263 50.4977 181.454 50.3373 181.61 50.138C181.766 49.9387 181.887 49.7133 181.974 49.462C182.06 49.2107 182.104 48.9463 182.104 48.669C182.104 48.3917 182.052 48.1273 181.948 47.876C181.852 47.616 181.718 47.3907 181.545 47.2C181.38 47.0093 181.181 46.8577 180.947 46.745C180.721 46.6323 180.483 46.576 180.232 46.576H177.294V50.788ZM195.384 46.576H192.095V55H191.185V46.576H187.896V45.77H195.384V46.576ZM204.606 54.246C205.187 54.246 205.668 54.1377 206.049 53.921C206.439 53.6957 206.747 53.4053 206.972 53.05C207.206 52.686 207.366 52.2743 207.453 51.815C207.548 51.3557 207.596 50.892 207.596 50.424V45.77H208.506V50.424C208.506 51.048 208.437 51.6417 208.298 52.205C208.159 52.7597 207.934 53.2493 207.622 53.674C207.319 54.0987 206.92 54.4367 206.426 54.688C205.932 54.9393 205.33 55.065 204.619 55.065C203.891 55.065 203.276 54.935 202.773 54.675C202.279 54.4063 201.88 54.0553 201.577 53.622C201.274 53.1887 201.057 52.6947 200.927 52.14C200.797 51.5853 200.732 51.0133 200.732 50.424V45.77H201.629V50.424C201.629 50.9093 201.677 51.3817 201.772 51.841C201.867 52.3003 202.028 52.7077 202.253 53.063C202.487 53.4183 202.795 53.7043 203.176 53.921C203.557 54.1377 204.034 54.246 204.606 54.246ZM214.77 55V45.77H218.592C218.991 45.77 219.355 45.8567 219.684 46.03C220.022 46.1947 220.313 46.4157 220.555 46.693C220.798 46.9617 220.989 47.2693 221.127 47.616C221.266 47.9627 221.335 48.3137 221.335 48.669C221.335 49.0503 221.27 49.4187 221.14 49.774C221.01 50.1207 220.828 50.4283 220.594 50.697C220.36 50.9657 220.079 51.1823 219.749 51.347C219.429 51.5117 219.069 51.594 218.67 51.594H215.68V55H214.77ZM215.68 50.788H218.631C218.9 50.788 219.143 50.7317 219.359 50.619C219.585 50.4977 219.775 50.3417 219.931 50.151C220.087 49.9517 220.209 49.7263 220.295 49.475C220.382 49.215 220.425 48.9463 220.425 48.669C220.425 48.383 220.373 48.1143 220.269 47.863C220.174 47.603 220.04 47.3777 219.866 47.187C219.702 46.9963 219.502 46.849 219.268 46.745C219.043 46.6323 218.805 46.576 218.553 46.576H215.68V50.788ZM232.347 47.499C232.087 47.2043 231.741 46.966 231.307 46.784C230.874 46.602 230.38 46.511 229.825 46.511C229.011 46.511 228.417 46.667 228.044 46.979C227.672 47.2823 227.485 47.6983 227.485 48.227C227.485 48.5043 227.533 48.734 227.628 48.916C227.732 49.0893 227.888 49.241 228.096 49.371C228.304 49.501 228.569 49.6137 228.889 49.709C229.219 49.8043 229.604 49.8997 230.046 49.995C230.54 50.099 230.982 50.216 231.372 50.346C231.771 50.476 232.109 50.6407 232.386 50.84C232.664 51.0307 232.876 51.2647 233.023 51.542C233.171 51.8193 233.244 52.166 233.244 52.582C233.244 53.0067 233.162 53.375 232.997 53.687C232.833 53.999 232.603 54.259 232.308 54.467C232.014 54.675 231.663 54.831 231.255 54.935C230.848 55.0303 230.402 55.078 229.916 55.078C228.486 55.078 227.251 54.6317 226.211 53.739L226.666 52.998C226.831 53.1713 227.026 53.336 227.251 53.492C227.485 53.648 227.741 53.7867 228.018 53.908C228.304 54.0207 228.608 54.1117 228.928 54.181C229.249 54.2417 229.587 54.272 229.942 54.272C230.679 54.272 231.251 54.142 231.658 53.882C232.074 53.6133 232.282 53.2103 232.282 52.673C232.282 52.387 232.222 52.1487 232.1 51.958C231.988 51.7587 231.814 51.5897 231.58 51.451C231.346 51.3037 231.056 51.178 230.709 51.074C230.363 50.97 229.96 50.866 229.5 50.762C229.015 50.6493 228.59 50.5323 228.226 50.411C227.862 50.2897 227.555 50.138 227.303 49.956C227.052 49.774 226.861 49.5573 226.731 49.306C226.61 49.046 226.549 48.7297 226.549 48.357C226.549 47.9323 226.627 47.5553 226.783 47.226C226.948 46.888 227.178 46.6107 227.472 46.394C227.767 46.1687 228.114 45.9997 228.512 45.887C228.911 45.7657 229.353 45.705 229.838 45.705C230.454 45.705 231 45.8003 231.476 45.991C231.962 46.173 232.399 46.433 232.789 46.771L232.347 47.499Z" fill="white"/>
</svg>
